<svg id="Capa_1" enable-background="new 0 0 512 512" height="512" viewBox="0 0 512 512" width="512" xmlns="http://www.w3.org/2000/svg"><g><path d="m381.905 62.408c-2.51-3.297-7.218-3.932-10.514-1.421-3.296 2.51-3.932 7.218-1.421 10.514 19.112 25.086 29.213 55.062 29.213 86.687 0 33.26-11.66 65.663-32.833 91.24-3.415 4.125-7.036 8.53-10.456 13.03l-21.451 28.213c-11.791 15.508-20.365 32.801-25.536 51.482h-17.831v-6.821c0-6.846-3.371-13.243-9.017-17.112-1.563-1.071-2.496-2.842-2.496-4.736v-14.701h10.139c13.864 0 25.144-11.28 25.144-25.144s-11.279-25.143-25.144-25.143-25.144 11.279-25.144 25.143v10.14h-17.118v-10.14c0-13.865-11.279-25.143-25.144-25.143s-25.144 11.28-25.144 25.144 11.279 25.143 25.144 25.143h10.139v14.701c0 1.894-.933 3.665-2.495 4.736-5.647 3.868-9.018 10.266-9.018 17.112v6.821h-17.831c-5.17-18.681-13.745-35.974-25.536-51.482l-21.847-28.735c-3.337-4.389-6.843-8.638-9.867-12.277-21.451-25.803-33.179-58.529-33.024-92.149.177-38.291 15.429-74.269 42.947-101.307 27.536-27.056 63.804-41.647 102.131-41.185 32.859.426 63.629 11.67 88.982 32.519 3.2 2.633 7.928 2.171 10.56-1.03 2.632-3.2 2.171-7.928-1.03-10.56-27.615-22.708-62.532-35.47-98.318-35.932-42.332-.575-82.43 15.604-112.842 45.485-30.393 29.863-47.24 69.618-47.435 111.941-.171 37.141 12.787 73.298 36.49 101.81 2.923 3.517 6.306 7.617 9.461 11.766l21.847 28.735c9.85 12.956 17.199 27.297 21.935 42.732-5.753 1.308-10.064 6.454-10.064 12.597v29.052c0 6.855 5.368 12.466 12.12 12.887v9.857c0 4.144 3.359 7.502 7.502 7.502s7.502-3.358 7.502-7.502v-9.816h102.784v43.058l-15.813 20.464h-71.159l-15.834-20.49c-.29-3.879-3.528-6.937-7.481-6.937-4.143 0-7.502 3.358-7.502 7.502 0 2.953.994 5.868 2.802 8.208l16.618 21.505c2.083 2.695 5.156 4.474 8.485 5.02 1.013 20.357 17.891 36.609 38.495 36.609s37.482-16.251 38.492-36.609c3.329-.546 6.402-2.325 8.486-5.021l16.619-21.506c1.805-2.339 2.8-5.253 2.8-8.207v-43.638c6.752-.42 12.12-6.031 12.12-12.887v-29.052c0-6.143-4.311-11.29-10.064-12.597 4.736-15.434 12.086-29.776 21.935-42.732l21.451-28.214c3.247-4.272 6.755-8.539 10.07-12.544 23.395-28.261 36.279-64.062 36.279-100.807 0-34.936-11.163-68.057-32.283-95.778zm-102.341 211.232c0-5.591 4.548-10.139 10.139-10.139s10.139 4.548 10.139 10.14c0 5.59-4.548 10.139-10.139 10.139h-10.139zm-23.564 223.356c-12.261 0-22.363-9.424-23.442-21.409h46.883c-1.078 11.985-11.18 21.409-23.441 21.409zm-20.072-161.664c0-1.894.932-3.664 2.495-4.735 5.646-3.87 9.017-10.268 9.017-17.113v-14.701h17.118v14.701c0 6.845 3.371 13.242 9.018 17.113 1.562 1.071 2.494 2.841 2.494 4.735v6.821h-40.144v-6.821zm-13.631-51.552c-5.591 0-10.139-4.548-10.139-10.14 0-5.591 4.548-10.139 10.139-10.139s10.139 4.548 10.139 10.139v10.14zm97.215 98.276h-127.024v-24.898h127.024z"/></g></svg>