<svg xmlns="http://www.w3.org/2000/svg" width="27" height="22" viewBox="0 0 27 22">
  <defs>
    <style>
      .cls-1 {
        fill: #e74c3c;
        fill-rule: evenodd;
      }
    </style>
  </defs>
  <path id="Forma_1" data-name="Forma 1" class="cls-1" d="M1046.62,2439.12h-5.19v-1.91a0.445,0.445,0,0,0-.89,0v1.91h-2.08v-1.91a0.445,0.445,0,0,0-.89,0v1.91h-5.19a0.44,0.44,0,1,0,0,.88h14.24A0.44,0.44,0,1,0,1046.62,2439.12Zm5.34-21.12h-24.92a1.037,1.037,0,0,0-1.04,1.03v15.84a1.035,1.035,0,0,0,1.04,1.02h19.73v0.15a0.445,0.445,0,0,0,.89,0v-0.15h0.89v0.15a0.445,0.445,0,0,0,.89,0v-0.15h0.89v0.15a0.445,0.445,0,0,0,.89,0v-0.15h0.74a1.035,1.035,0,0,0,1.04-1.02v-15.84A1.037,1.037,0,0,0,1051.96,2418Zm0.15,16.87a0.152,0.152,0,0,1-.15.14h-24.92a0.152,0.152,0,0,1-.15-0.14v-15.84a0.154,0.154,0,0,1,.15-0.15h24.92a0.154,0.154,0,0,1,.15.15v15.84Zm-1.34-15.11h-22.54a0.44,0.44,0,1,0,0,.88h22.1v8.95a0.445,0.445,0,0,0,.89,0v-9.39A0.446,0.446,0,0,0,1050.77,2419.76Zm0,11.15a0.437,0.437,0,0,0-.44.44v1.9h-21.66v-11.29a0.445,0.445,0,0,0-.89,0v11.73a0.44,0.44,0,0,0,.45.44h22.54a0.44,0.44,0,0,0,.45-0.44v-2.34A0.44,0.44,0,0,0,1050.77,2430.91Z" transform="translate(-1026 -2418)"/>
</svg>
